<svg width="674" height="698" viewBox="0 0 674 698" fill="none" xmlns="http://www.w3.org/2000/svg">
    <path d="M541 339C541 438.135 429.135 475 330 475C230.865 475 131 453.635 131 354.5C131 308.607 73.6653 239.737 102 208C134.872 171.181 264.758 189 318 189C417.135 189 541 239.865 541 339Z" fill="transparent"/>
    <path d="M560 343C560 442.135 506.135 439 407 439C307.865 439 112 496.135 112 397C112 351.107 158.665 205.737 187 174C219.872 137.181 276.758 223 330 223C429.135 223 560 243.865 560 343Z" fill="transparent"/>
    <path d="M452 204C452 295 551.135 507 452 507C352.865 507 169 542.135 169 443C169 397.107 34.6654 355.737 63 324C95.8722 287.181 115.758 174 169 174C268.135 174 452 104.865 452 204Z" fill="transparent"/>
    <path d="M404 273C404 364 575 387 539 484C506.711 571 265 557 228 451C209.5 398 57.6032 484 73 387C83 324 182.758 110 236 110C335.135 110 404 173.865 404 273Z" fill="transparent"/>
    <path d="M294 177C372.303 223.364 496.95 127.025 562.074 207.423C620.484 279.533 485.061 520.169 375 498C319.969 486.916 196.621 585.67 121 523C71.8851 482.297 85.8733 338.814 113 293C163.509 207.697 208.697 126.491 294 177Z" fill="transparent"/>
    <path d="M375 199C453.303 245.364 547.876 279.602 613 360C671.41 432.109 485.061 520.169 375 498C319.969 486.916 115.621 516.67 40 454C-9.11484 413.297 114.873 315.814 142 270C192.509 184.697 289.697 148.491 375 199Z" fill="transparent"/>
    <path d="M147 147C227.405 104.385 346.323 120.512 448.888 106.896C540.879 94.6838 513.332 336.669 437 419C398.834 460.166 456.917 583.18 364 615C303.652 635.667 151.32 508.811 126.387 461.768C79.9622 374.175 59.4068 193.424 147 147Z" fill="transparent"/>
    
    <path d="M190 556C152.673 473.008 66.9563 364.231 60 261C53.7609 168.412 373.366 151.998 450.59 233.493C489.202 274.241 615.714 224.233 641.46 319.013C658.182 380.571 466.557 432.161 418 454C327.589 494.664 230.664 646.411 190 556Z" fill="#F2F2F2">
        <animate
           attributeName="d" 
           dur="10s"
           repeatCount="indefinite"
           values="M190 556C152.673 473.008 66.9563 364.231 60 261C53.7609 168.412 373.366 151.998 450.59 233.493C489.202 274.241 615.714 224.233 641.46 319.013C658.182 380.571 466.557 432.161 418 454C327.589 494.664 230.664 646.411 190 556Z;
           
           M404 273C404 364 575 387 539 484C506.711 571 265 557 228 451C209.5 398 57.6032 484 73 387C83 324 182.758 110 236 110C335.135 110 404 173.865 404 273Z;
           M294 177C372.303 223.364 496.95 127.025 562.074 207.423C620.484 279.533 485.061 520.169 375 498C319.969 486.916 196.621 585.67 121 523C71.8851 482.297 85.8733 338.814 113 293C163.509 207.697 208.697 126.491 294 177Z;
           M375 199C453.303 245.364 547.876 279.602 613 360C671.41 432.109 485.061 520.169 375 498C319.969 486.916 115.621 516.67 40 454C-9.11484 413.297 114.873 315.814 142 270C192.509 184.697 289.697 148.491 375 199Z;
           M147 147C227.405 104.385 346.323 120.512 448.888 106.896C540.879 94.6838 513.332 336.669 437 419C398.834 460.166 456.917 583.18 364 615C303.652 635.667 151.32 508.811 126.387 461.768C79.9622 374.175 59.4068 193.424 147 147Z;
           M190 556C152.673 473.008 66.9563 364.231 60 261C53.7609 168.412 373.366 151.998 450.59 233.493C489.202 274.241 615.714 224.233 641.46 319.013C658.182 380.571 466.557 432.161 418 454C327.589 494.664 230.664 646.411 190 556Z;"
        />
    </path>
</svg>
