<svg
    height="200"
    width="606.28"
    xmlns="http://www.w3.org/2000/svg"
    viewBox="0 0 606.28 200"

>
    <path
        d="M2.37 28.6c16.71-2.2 36.18 6.61 40.54 24.06 1.98 7.94-.82 18.34-9.49 20.9-4.2 1.24-8.66-.46-10.79-4.33s-1.37-9.38.73-13.25c5.53-10.21 17.99-10.5 27.93-7.76 11.36 3.13 21.98 8.9
        32.58 13.92 21.52 10.19 43.26 19.91 64.81 30.06 18.75 8.83 39.08 17.68 60.23 17.09 17.88-.5 36.09-8.77 43.54-25.95s.8-35.06-14.93-43.6c-16.61-9.01-37.97-4.64-51.79 7.5-14.51 12.75-19.46
        32.06-29.99 47.61-6.05 8.94-14.33 15.53-24.97 18s-21.11.8-29.95-4.79c-15.52-9.8-21.6-30.11-14.85-47.02 7.54-18.9 27.6-27.12 46.9-25.54 22.34 1.83 41.72 14.5 59.36 27.31 17.75 12.89 35.54 26.48
        57.12 32.21 10 2.65 20.5 3.49 30.71 1.55s19.41-6.92 27.67-13.07c15.9-11.84 30.95-30.58 51.93-32.76 21.45-2.23 37.72 16.6 52.64 29.07s30.75 21.73 50.1 20.87c16.53-.74 33.13-9.58 37.96-26.32 
        4.38-15.2-2.2-32.38-17.58-38.01-18.71-6.85-37.19 8.62-47.92 22.37-7.13 9.15-13.11 19.18-20.55 28.09-7.04 8.43-15.28 15.91-24.47 21.94-17.78 11.66-39.56 17.83-60.57 
        12.35-18.93-4.94-36.42-18.82-42.02-38.09-6.03-20.76 3.86-41.29 20.52-53.86s38.57-17.7 59.44-16.23 43.21 10.02 60.58 23.32c8.25 6.32 15.69 13.86 21.65 
        22.38 5.35 7.66 9.29 16.15 13.53 24.45 8.28 16.22 19.3 32.74 38.48 36.44s37.39-5.21 47.18-21.02c9.69-15.65 9.69-35.76 
        2.55-52.38-7.59-17.68-22.73-31.31-40.29-38.74-41.06-17.39-87.64-1.84-121.11 24.37-16.47 12.9-30.99 29.08-40.29 47.94-8.82 17.88-13.48 39.83-4.4 58.55 8.11 16.72 26.29 25.32
        44.16 26.54 21.86 1.5 43.83-5.79 62.6-16.54 18.48-10.58 33.71-25.59 46.66-42.36 12.56-16.27 24.28-34.14 42.65-44.47 18.97-10.67 41.44-12.04 62.72-10.95 3.22.16 3.21-4.84 
        0-5-21.55-1.1-44.07.44-63.51 10.69-18.14 9.56-30.54 26.34-42.55 42.41-12.95 17.32-27.93 33.21-46.68 44.3-18.92 11.19-41.4 18.91-63.63 16.77-19.52-1.88-37.09-13.64-41.35-33.56-4.45-20.79 5.16-42.58 16.83-59.3 
        12.34-17.68 29.15-32.38 47.68-43.29 19-11.18 40.73-18.45 62.92-18.44s42.79 7.02 58.28 22c13.8 13.34 21.98 32.72 18.71 52.01-3.25 19.21-18.43 35.05-38.4 
        36.23-9.72.58-19.25-2.55-26.66-8.87s-12.07-14.09-16.41-22.28-7.98-16.41-12.82-24.15c-5.42-8.65-12.23-16.43-19.93-23.12-15.91-13.82-35.59-23.44-56.32-27.28s-42.42-1.89-61.52 7.24c-17.56 
        8.4-33.12 23.61-37.08 43.24s4.15 38.85 19 51.56 34.72 18.44 54.02 15.97c21.02-2.69 40.21-13.86 55.23-28.48 8.05-7.83 14.48-16.9 20.88-26.08 6.05-8.68 12.23-17.27 20.54-23.95 7.47-6 17.37-11.04 27.2-8.83 
        8.31 1.87 14.76 8.11 17.19 16.22 2.21 7.37 1.32 15.63-2.39 22.37-4.2 7.62-11.77 12.71-20.01 15.09-18.78 5.43-37.13-1.97-51.99-13.38-15.48-11.89-29.49-29.47-49.32-34-21.26-4.85-39.15 9.62-54.25 22.5-7.63 
        6.52-15.33 13.11-24.32 17.71-9.81 5.02-20.74 6.69-31.65 5.52-22.47-2.41-41.73-15.46-59.5-28.42s-35.46-26.11-57.01-31.36c-18.81-4.59-40.14-2.25-54.21 12.16-12.27 12.55-16.08 31.6-9.29 47.83 7.18 17.16 24.66 27.69 43.19 26.3 
        10.38-.78 20.2-4.91 27.7-12.18 6.86-6.66 11.42-15.15 15.68-23.6 8.63-17.09 17.55-35.2 37.31-41.16 17.88-5.39 40.7 1.83 44.56 22.12 3.63 19.09-12.31 34.84-29.7
        38.89-20.44 4.77-41.6-2.68-60.13-10.87-10.47-4.63-20.67-9.83-31.06-14.64-11.08-5.13-22.22-10.12-33.33-15.18S74.44 51.85 63.51 47.3c-9.55-3.97-20.44-7.59-30.79-4.6-8.68 2.51-15.21 9.82-16.2 
        18.88-.9 8.18 3.87 16.34 12.51 17.29S44.53 73.49 47.18 66s1.03-16.5-3.14-23.48c-8.35-14-25.81-21.01-41.67-18.92-3.14.41-3.19 5.42 0 5Z"
        id="check"
        data-name="Layer 1"
        style="fill: none; stroke-width: 2"
        dominant-baseline="central" 
        transform="translate(0 20)"
        
    />
</svg>